<?xml version="1.0" encoding="utf-8"?>
<!-- Generator: Adobe Illustrator 24.0.0, SVG Export Plug-In . SVG Version: 6.00 Build 0)  -->
<svg version="1.1" id="Layer_1" xmlns="http://www.w3.org/2000/svg" xmlns:xlink="http://www.w3.org/1999/xlink" x="0px" y="0px"
	 viewBox="0 0 300 300" style="enable-background:new 0 0 300 300;" xml:space="preserve">
<style type="text/css">
	.st0{fill:url(#SVGID_1_);}
	.st1{fill:url(#SVGID_2_);}
	.st2{fill:url(#SVGID_3_);}
	.st3{fill:url(#SVGID_4_);}
</style>
<g>
	<g>
		<g id="CXHf1q_3_">
			<g>
				<g>
					<linearGradient id="SVGID_1_" gradientUnits="userSpaceOnUse" x1="197.2555" y1="15.4016" x2="0.2555" y2="163.4016">
						<stop  offset="0" style="stop-color:#36F4FF"/>
						<stop  offset="1" style="stop-color:#CCFFFF"/>
					</linearGradient>
					<path class="st0" d="M79.5,123.3l-2.5,3.8c-0.3,0.4-1,0.9-1.5,0.9l-52.9-0.1c-0.6,0-0.7-0.3-0.4-0.7l3.1-4
						c0.3-0.4,1-0.7,1.6-0.7H79C79.6,122.5,79.7,122.9,79.5,123.3z"/>
					<linearGradient id="SVGID_2_" gradientUnits="userSpaceOnUse" x1="210.971" y1="33.658" x2="13.971" y2="181.6581">
						<stop  offset="0" style="stop-color:#36F4FF"/>
						<stop  offset="1" style="stop-color:#CCFFFF"/>
					</linearGradient>
					<path class="st1" d="M69.1,150.4l-0.3,3.5c0,0.6-0.6,1-1,1l-31.8-0.1c-0.6,0-0.7-0.4-0.4-0.9l2.1-3.7c0.3-0.4,0.9-0.9,1.5-0.9
						h29.2C68.8,149.4,69.1,149.8,69.1,150.4z"/>
					<linearGradient id="SVGID_3_" gradientUnits="userSpaceOnUse" x1="259.3206" y1="98.0153" x2="62.3207" y2="246.0153">
						<stop  offset="0" style="stop-color:#36F4FF"/>
						<stop  offset="1" style="stop-color:#CCFFFF"/>
					</linearGradient>
					<path class="st2" d="M299.4,136.5c-1.9-14-9-24.7-20.6-32.6c-12.7-8.6-26.7-10.1-41.6-7.5c-17.4,3.1-30.2,10.4-40.9,24.4
						c-4.6,6-8,12.3-10.1,19h-47c-2.2,0-3.2,1.5-3.7,2.3c-2,3.8-5.5,11.4-7.5,15.9c-1,2.5-0.3,4.4,2.8,4.4h28.2
						c-1.5,2-2.6,3.8-3.9,5.4c-6.6,7.5-14.9,11-24.8,9.6c-11.5-1.6-19.6-11.3-19.7-22.9c-0.1-11.8,5-21.3,14.9-27.8
						c8.3-5.4,17.2-6.7,26.4-2.2c3.1,1.5,4.7,3.1,6.9,5.6c1.9,2.2,2,2,4.2,1.5c9.1-2.3,15.3-4.1,24.5-6.4c1.8-0.4,2.3-1.2,1.5-2.5
						c-3.7-8.5-9.2-15.5-16.9-20.6c-11.8-8-25-9.6-38.7-7.2c-16.8,3.1-30.5,11.7-40.9,25.3c-9.6,12.6-14.3,26.9-12.4,42.8
						c1.6,13.4,7.8,24.3,18.6,32.4c11.7,8.8,25,11.5,39.3,9.6c17.4-2.3,31.1-11,41.6-24.8c2.4-3.1,4.4-6.5,6.1-9.9
						c2.5,8.9,7.4,16.5,14.6,22.8c10.2,8.8,22.3,12.6,35.6,12.9c3.8-0.4,7.7-0.6,11.7-1.3c13.6-2.8,25.4-8.9,35.1-18.7
						C296.2,172.3,301.9,156.2,299.4,136.5z M252.1,174.9c-7.8,4-15.8,4.4-23.8,0.9c-10.5-4.7-16.1-16.2-13.4-27.6
						c3.2-13.7,12-22.4,25.6-25.4c13.9-3.2,27.2,5,29.8,19.4c0.3,1.5,0.3,2.9,0.4,4.8C269.9,159.6,263.6,168.9,252.1,174.9z"/>
					<linearGradient id="SVGID_4_" gradientUnits="userSpaceOnUse" x1="198.621" y1="17.2192" x2="1.621" y2="165.2192">
						<stop  offset="0" style="stop-color:#36F4FF"/>
						<stop  offset="1" style="stop-color:#CCFFFF"/>
					</linearGradient>
					<path class="st3" d="M72.1,136.8l-1.2,3.5c-0.1,0.6-0.7,0.9-1.3,0.9l-69.1,0.2c-0.6,0-0.7-0.3-0.4-0.7l3.1-4
						c0.3-0.4,1-0.7,1.6-0.7h66.6C72,135.9,72.3,136.4,72.1,136.8z"/>
				</g>
			</g>
		</g>
	</g>
</g>
</svg>